<?xml version="1.0" encoding="UTF-8"?>
<svg width="160px" height="37px" viewBox="0 0 160 37" version="1.1" xmlns="http://www.w3.org/2000/svg" xmlns:xlink="http://www.w3.org/1999/xlink">
    <!-- Generator: Sketch 49.3 (51167) - http://www.bohemiancoding.com/sketch -->
    <title>fotop</title>
    <desc>Created with Sketch.</desc>
    <defs></defs>
    <g id="Welcome" stroke="none" stroke-width="1" fill="none" fill-rule="evenodd">
        <g id="Desktop-HD" transform="translate(-130.000000, -51.000000)" fill="#FFFFFF">
            <g id="fotop" transform="translate(130.000000, 51.000000)">
                <path d="M127.148136,9.13671573 L127.336579,9.13671573 L144.233618,9.13671573 L147.06026,9.13671573 C147.688403,9.13671573 148.253731,9.13671573 148.693431,9.26187622 C149.195945,9.32445646 149.572831,9.5121972 149.886902,9.69993793 C150.200974,9.95025891 150.452231,10.3257404 150.577859,10.7638021 C150.703488,11.264444 150.829116,11.8902465 150.829116,12.7037897 C150.829116,13.5173329 150.766302,14.1431353 150.577859,14.6437773 C150.452231,15.1444192 150.200974,15.4573204 149.886902,15.7076414 C149.572831,15.9579624 149.195945,16.0831229 148.693431,16.2082834 C148.190917,16.2708636 147.688403,16.3334439 147.06026,16.3334439 L144.233618,16.3334439 L135.313991,16.3334439 C133.869263,16.3334439 133.555192,17.1469871 133.555192,17.9605302 L133.555192,35.3578383 C133.555192,35.8584802 133.68082,36.2339617 133.994892,36.5468629 C134.246149,36.7971839 134.685849,36.9849246 135.188363,36.9849246 L141.092904,36.9849246 C142.160747,36.9849246 142.663261,36.4842827 142.663261,35.4204185 L142.663261,26.846925 C142.663261,26.346283 142.78889,25.9082213 143.102961,25.6579003 C143.354218,25.4075794 143.793918,25.2824189 144.296432,25.2824189 L146.809003,25.2824189 C149.949717,25.2824189 152.462287,24.8443571 154.40953,23.9056535 C156.356772,23.0295301 157.738686,21.5901844 158.6809,19.7753573 C159.5603,17.89795 160,15.5199007 160,12.6412094 C160,9.76251817 159.5603,7.38446888 158.6809,5.50706153 C157.801501,3.62965419 156.356772,2.25288881 154.40953,1.37676538 C152.462287,0.500641958 149.949717,0 146.809003,0 L118.354138,0 C117.097853,0 117.097853,0.250320979 118.165695,0.938703671 C120.929523,2.62837028 123.316466,4.94383933 125.012451,7.6973701 C125.075265,7.75995034 125.075265,7.82253059 125.138079,7.88511083 C125.514965,8.76123426 126.143108,9.13671573 127.148136,9.13671573 Z" id="Shape" fill-rule="nonzero"></path>
                <path d="M23.4085268,0 C24.4394723,0 24.9246231,0.501490503 24.9246231,1.56715782 L24.9246231,7.45967124 C24.9246231,7.96116174 24.8033354,8.33727962 24.56076,8.65071118 C24.3181846,8.90145643 23.9543215,9.08951537 23.4085268,9.08951537 L10.6126741,9.08951537 C10.1275233,9.08951537 9.76366015,9.214888 9.46044089,9.46563325 C9.21786548,9.7163785 9.03593393,10.0924964 9.03593393,10.6566732 L9.03593393,12.3492036 C9.03593393,12.8506941 9.15722163,13.226812 9.46044089,13.5402436 C9.7030163,13.7909888 10.1275233,13.9163615 10.6126741,13.9790478 L19.0421695,13.9790478 C20.073115,13.9790478 20.5582658,14.4805383 20.5582658,15.5462056 L20.5582658,21.438719 C20.5582658,21.9402095 20.4369781,22.3163274 20.1944027,22.629759 C19.9518273,22.8805042 19.5879642,23.0058768 19.0421695,23.0685632 L10.6126741,23.0685632 C10.1275233,23.0685632 9.76366015,23.1939358 9.46044089,23.444681 C9.21786548,23.6954263 9.03593393,24.0715442 9.03593393,24.635721 L9.03593393,35.3550805 C9.03593393,35.856571 8.91464622,36.2326889 8.67207082,36.5461204 C8.42949541,36.7968657 8.0656323,36.9222383 7.51983763,36.9849246 L1.5160963,36.9849246 C1.03094548,36.9849246 0.66708237,36.859552 0.363863111,36.5461204 C0.121287704,36.1700026 0,35.7938847 0,35.2923942 L0,1.56715782 C0,1.06566732 0.121287704,0.626863129 0.424506963,0.376117878 C0.66708237,0.125372626 1.03094548,0 1.5160963,0 L23.4085268,0 Z" id="Shape" fill-rule="nonzero"></path>
                <path d="M43.4170854,0 C53.6068096,0 61.9095477,8.30273818 61.9095477,18.4924623 C61.9095477,28.6821864 53.6697091,36.9849246 43.4170854,36.9849246 C33.1644618,36.9849246 24.9246231,28.6821864 24.9246231,18.4924623 C24.9246231,8.30273818 33.2273613,0 43.4170854,0 Z M43.4170854,9.05753256 C48.6377466,9.05753256 52.8520152,13.2718012 52.8520152,18.4924623 C52.8520152,23.7131234 48.6377466,27.9273921 43.4170854,27.9273921 C38.1964243,27.9273921 33.9821557,23.7131234 33.9821557,18.4924623 C33.9821557,13.2718012 38.2593238,9.05753256 43.4170854,9.05753256 Z" id="Shape"></path>
                <path d="M126.231156,18.429776 C126.231156,28.5849587 117.971961,36.859552 107.835676,36.859552 C97.6993919,36.859552 89.4401971,28.5849587 89.4401971,18.429776 C89.4401971,16.2984414 89.815615,14.1671067 90.5038813,12.2865173 C90.7541599,11.5969679 91.3172868,11.0954774 92.2558317,11.0954774 L100.640166,11.0954774 C101.64128,11.0954774 101.391002,11.6596542 101.140723,11.9103995 C101.078153,11.9730858 101.015584,12.0357721 100.953014,12.0984584 C99.3887727,13.7909888 98.4502278,15.9850098 98.4502278,18.4924623 C98.4502278,23.6954263 102.642395,27.8954092 107.835676,27.8954092 C113.028958,27.8954092 117.221125,23.6954263 117.221125,18.4924623 C117.221125,13.414871 113.154097,9.27757431 108.148525,9.15220169 L107.835676,9.15220169 L107.585398,9.15220169 L92.0055531,9.15220169 L86.3742839,9.15220169 L83.1832313,9.15220169 C82.6826741,9.15220169 82.3072561,9.27757431 81.9944078,9.52831956 C81.7441292,9.77906482 81.5564202,10.217869 81.5564202,10.7193595 L81.5564202,35.3550805 C81.5564202,35.856571 81.4312809,36.2326889 81.1810023,36.5461204 C80.9307237,36.7968657 80.4927361,36.9849246 79.9921788,36.9849246 L74.110631,36.9849246 C73.6100737,36.9849246 73.2346558,36.859552 72.9218075,36.5461204 C72.6715289,36.2953752 72.4838199,35.856571 72.4838199,35.3550805 L72.4838199,10.6566732 C72.4838199,9.59100588 71.9832626,9.08951537 70.9195784,9.08951537 L63.5363588,9.08951537 C63.0358016,9.08951537 62.6603836,8.96414275 62.3475353,8.65071118 C62.0972567,8.39996593 61.9095477,7.96116174 61.9095477,7.45967124 L61.9095477,1.56715782 C61.9095477,1.06566732 62.0346871,0.626863129 62.3475353,0.376117878 C62.597814,0.125372626 63.0358016,6.95957879e-17 63.5363588,6.95957879e-17 L107.585398,6.95957879e-17 C107.710537,0 107.773107,0 107.835676,0 C117.971961,0 126.231156,8.27459331 126.231156,18.429776 Z" id="Shape"></path>
                <path d="M114.797921,19.2964824 C114.213051,19.2964824 113.758152,18.8445879 113.758152,18.2635807 C113.758152,15.1003191 111.158732,12.5180648 107.974442,12.5180648 C107.389572,12.5180648 106.934673,12.0661703 106.934673,11.485163 C106.934673,10.9041558 107.389572,10.4522613 107.974442,10.4522613 C112.263486,10.4522613 115.772703,13.9383047 115.772703,18.1990243 C115.837689,18.8445879 115.38279,19.2964824 114.797921,19.2964824 Z" id="Shape" fill-rule="nonzero"></path>
            </g>
        </g>
    </g>
</svg>